<mxfile host="app.diagrams.net" agent="Mozilla/5.0 (Macintosh; Intel Mac OS X 10_15_7) AppleWebKit/537.36 (KHTML, like Gecko) Chrome/135.0.0.0 Safari/537.36" version="26.2.12">
  <diagram name="Page-1" id="8psTu5joOEkHxSPbt8DS">
    <mxGraphModel dx="1458" dy="2071" grid="1" gridSize="10" guides="1" tooltips="1" connect="1" arrows="1" fold="1" page="1" pageScale="1" pageWidth="827" pageHeight="1169" math="0" shadow="0">
      <root>
        <mxCell id="0" />
        <mxCell id="1" parent="0" />
        <mxCell id="5wcGb58u3SQSDJ49Bvyi-14" value="" style="edgeStyle=orthogonalEdgeStyle;rounded=0;orthogonalLoop=1;jettySize=auto;html=1;strokeWidth=3;" edge="1" parent="1" source="5wcGb58u3SQSDJ49Bvyi-1">
          <mxGeometry relative="1" as="geometry">
            <mxPoint x="220" y="291" as="targetPoint" />
          </mxGeometry>
        </mxCell>
        <mxCell id="5wcGb58u3SQSDJ49Bvyi-1" value="&lt;font style=&quot;font-size: 18px;&quot;&gt;AXI STREAM&lt;/font&gt;&lt;div&gt;&lt;font size=&quot;3&quot;&gt;Interface&lt;/font&gt;&lt;/div&gt;&lt;div&gt;&lt;font size=&quot;3&quot;&gt;(Slave)&lt;/font&gt;&lt;/div&gt;" style="rounded=0;whiteSpace=wrap;html=1;" vertex="1" parent="1">
          <mxGeometry x="100" y="222.5" width="80" height="137.5" as="geometry" />
        </mxCell>
        <mxCell id="5wcGb58u3SQSDJ49Bvyi-13" value="" style="edgeStyle=orthogonalEdgeStyle;rounded=0;orthogonalLoop=1;jettySize=auto;html=1;entryX=0;entryY=0.5;entryDx=0;entryDy=0;strokeWidth=3;" edge="1" parent="1" source="5wcGb58u3SQSDJ49Bvyi-4" target="5wcGb58u3SQSDJ49Bvyi-5">
          <mxGeometry relative="1" as="geometry">
            <mxPoint x="370" y="287.4999999999999" as="targetPoint" />
          </mxGeometry>
        </mxCell>
        <mxCell id="5wcGb58u3SQSDJ49Bvyi-4" value="&lt;font style=&quot;font-size: 18px;&quot;&gt;Grayscale conversion&lt;/font&gt;" style="whiteSpace=wrap;html=1;" vertex="1" parent="1">
          <mxGeometry x="224" y="235" width="120" height="105" as="geometry" />
        </mxCell>
        <mxCell id="5wcGb58u3SQSDJ49Bvyi-12" value="" style="edgeStyle=orthogonalEdgeStyle;rounded=0;orthogonalLoop=1;jettySize=auto;html=1;strokeWidth=3;" edge="1" parent="1" source="5wcGb58u3SQSDJ49Bvyi-5" target="5wcGb58u3SQSDJ49Bvyi-6">
          <mxGeometry relative="1" as="geometry" />
        </mxCell>
        <mxCell id="5wcGb58u3SQSDJ49Bvyi-21" value="" style="edgeStyle=orthogonalEdgeStyle;rounded=0;orthogonalLoop=1;jettySize=auto;html=1;strokeWidth=3;" edge="1" parent="1" source="5wcGb58u3SQSDJ49Bvyi-5">
          <mxGeometry relative="1" as="geometry">
            <mxPoint x="690" y="287" as="targetPoint" />
          </mxGeometry>
        </mxCell>
        <mxCell id="5wcGb58u3SQSDJ49Bvyi-5" value="&lt;font style=&quot;font-size: 18px;&quot;&gt;Ft&lt;/font&gt;&lt;div&gt;&lt;font size=&quot;3&quot;&gt;Frame Buffer&lt;/font&gt;&lt;/div&gt;" style="rounded=0;whiteSpace=wrap;html=1;" vertex="1" parent="1">
          <mxGeometry x="500" y="237.5" width="120" height="100" as="geometry" />
        </mxCell>
        <mxCell id="5wcGb58u3SQSDJ49Bvyi-11" value="" style="edgeStyle=orthogonalEdgeStyle;rounded=0;orthogonalLoop=1;jettySize=auto;html=1;strokeWidth=3;" edge="1" parent="1" source="5wcGb58u3SQSDJ49Bvyi-6" target="5wcGb58u3SQSDJ49Bvyi-7">
          <mxGeometry relative="1" as="geometry" />
        </mxCell>
        <mxCell id="5wcGb58u3SQSDJ49Bvyi-20" value="" style="edgeStyle=orthogonalEdgeStyle;rounded=0;orthogonalLoop=1;jettySize=auto;html=1;entryX=0;entryY=0.628;entryDx=0;entryDy=0;entryPerimeter=0;strokeWidth=3;" edge="1" parent="1" source="5wcGb58u3SQSDJ49Bvyi-6" target="5wcGb58u3SQSDJ49Bvyi-16">
          <mxGeometry relative="1" as="geometry" />
        </mxCell>
        <mxCell id="5wcGb58u3SQSDJ49Bvyi-6" value="&lt;font style=&quot;font-size: 18px;&quot;&gt;Ft-1&lt;/font&gt;&lt;div&gt;&lt;font size=&quot;3&quot;&gt;Frame Buffer&lt;/font&gt;&lt;/div&gt;" style="rounded=0;whiteSpace=wrap;html=1;" vertex="1" parent="1">
          <mxGeometry x="500" y="360" width="120" height="100" as="geometry" />
        </mxCell>
        <mxCell id="5wcGb58u3SQSDJ49Bvyi-19" value="" style="edgeStyle=orthogonalEdgeStyle;rounded=0;orthogonalLoop=1;jettySize=auto;html=1;entryX=-0.04;entryY=0.892;entryDx=0;entryDy=0;entryPerimeter=0;strokeWidth=3;" edge="1" parent="1" source="5wcGb58u3SQSDJ49Bvyi-7" target="5wcGb58u3SQSDJ49Bvyi-16">
          <mxGeometry relative="1" as="geometry" />
        </mxCell>
        <mxCell id="5wcGb58u3SQSDJ49Bvyi-7" value="&lt;font style=&quot;font-size: 18px;&quot;&gt;Ft-2&lt;/font&gt;&lt;div&gt;&lt;font size=&quot;3&quot;&gt;Frame Buffer&lt;/font&gt;&lt;/div&gt;" style="rounded=0;whiteSpace=wrap;html=1;" vertex="1" parent="1">
          <mxGeometry x="500" y="480" width="120" height="100" as="geometry" />
        </mxCell>
        <mxCell id="5wcGb58u3SQSDJ49Bvyi-8" value="&lt;font style=&quot;font-size: 24px;&quot;&gt;AXI MEM (Master)&lt;/font&gt;" style="whiteSpace=wrap;html=1;" vertex="1" parent="1">
          <mxGeometry x="100" y="30" width="1020" height="60" as="geometry" />
        </mxCell>
        <mxCell id="5wcGb58u3SQSDJ49Bvyi-22" value="" style="edgeStyle=orthogonalEdgeStyle;rounded=0;orthogonalLoop=1;jettySize=auto;html=1;entryX=-0.03;entryY=0.109;entryDx=0;entryDy=0;entryPerimeter=0;strokeWidth=3;" edge="1" parent="1" source="5wcGb58u3SQSDJ49Bvyi-10" target="5wcGb58u3SQSDJ49Bvyi-16">
          <mxGeometry relative="1" as="geometry" />
        </mxCell>
        <mxCell id="5wcGb58u3SQSDJ49Bvyi-10" value="&lt;font style=&quot;font-size: 18px;&quot;&gt;Background&lt;br&gt;&lt;/font&gt;&lt;div&gt;&lt;font size=&quot;3&quot;&gt;Frame Buffer&lt;/font&gt;&lt;/div&gt;" style="rounded=0;whiteSpace=wrap;html=1;" vertex="1" parent="1">
          <mxGeometry x="500" y="122.5" width="120" height="100" as="geometry" />
        </mxCell>
        <mxCell id="5wcGb58u3SQSDJ49Bvyi-15" value="&lt;font face=&quot;Times New Roman&quot; style=&quot;font-size: 18px;&quot;&gt;Background&lt;/font&gt;&lt;div&gt;&lt;font face=&quot;Times New Roman&quot; size=&quot;3&quot;&gt;Update&amp;nbsp;&lt;/font&gt;&lt;/div&gt;&lt;div&gt;&lt;font face=&quot;Times New Roman&quot; size=&quot;3&quot;&gt;Logic&lt;/font&gt;&lt;/div&gt;" style="rounded=0;whiteSpace=wrap;html=1;" vertex="1" parent="1">
          <mxGeometry x="344" y="122.5" width="120" height="100" as="geometry" />
        </mxCell>
        <mxCell id="5wcGb58u3SQSDJ49Bvyi-26" value="" style="edgeStyle=orthogonalEdgeStyle;rounded=0;orthogonalLoop=1;jettySize=auto;html=1;strokeWidth=3;" edge="1" parent="1" source="5wcGb58u3SQSDJ49Bvyi-16" target="5wcGb58u3SQSDJ49Bvyi-25">
          <mxGeometry relative="1" as="geometry" />
        </mxCell>
        <mxCell id="5wcGb58u3SQSDJ49Bvyi-16" value="&lt;font style=&quot;font-size: 18px;&quot;&gt;Motion Detection&lt;/font&gt;" style="whiteSpace=wrap;html=1;" vertex="1" parent="1">
          <mxGeometry x="689" y="122.5" width="90" height="457.5" as="geometry" />
        </mxCell>
        <mxCell id="5wcGb58u3SQSDJ49Bvyi-17" value="" style="endArrow=classic;html=1;rounded=0;strokeWidth=3;" edge="1" parent="1">
          <mxGeometry width="50" height="50" relative="1" as="geometry">
            <mxPoint x="400" y="284" as="sourcePoint" />
            <mxPoint x="400" y="224" as="targetPoint" />
          </mxGeometry>
        </mxCell>
        <mxCell id="5wcGb58u3SQSDJ49Bvyi-18" value="" style="endArrow=classic;startArrow=classic;html=1;rounded=0;exitX=1;exitY=0.5;exitDx=0;exitDy=0;entryX=0;entryY=0.5;entryDx=0;entryDy=0;strokeWidth=3;" edge="1" parent="1" source="5wcGb58u3SQSDJ49Bvyi-15" target="5wcGb58u3SQSDJ49Bvyi-10">
          <mxGeometry width="50" height="50" relative="1" as="geometry">
            <mxPoint x="650" y="370" as="sourcePoint" />
            <mxPoint x="700" y="320" as="targetPoint" />
          </mxGeometry>
        </mxCell>
        <mxCell id="5wcGb58u3SQSDJ49Bvyi-23" value="" style="endArrow=classic;html=1;rounded=0;strokeWidth=3;" edge="1" parent="1">
          <mxGeometry width="50" height="50" relative="1" as="geometry">
            <mxPoint x="200" y="290" as="sourcePoint" />
            <mxPoint x="200" y="97" as="targetPoint" />
          </mxGeometry>
        </mxCell>
        <mxCell id="5wcGb58u3SQSDJ49Bvyi-30" value="" style="edgeStyle=orthogonalEdgeStyle;rounded=0;orthogonalLoop=1;jettySize=auto;html=1;strokeWidth=3;" edge="1" parent="1" source="5wcGb58u3SQSDJ49Bvyi-25" target="5wcGb58u3SQSDJ49Bvyi-28">
          <mxGeometry relative="1" as="geometry" />
        </mxCell>
        <mxCell id="5wcGb58u3SQSDJ49Bvyi-25" value="&lt;font style=&quot;font-size: 24px;&quot;&gt;3x3 Box Filter&lt;/font&gt;" style="rounded=0;whiteSpace=wrap;html=1;" vertex="1" parent="1">
          <mxGeometry x="827" y="276.25" width="163" height="150" as="geometry" />
        </mxCell>
        <mxCell id="5wcGb58u3SQSDJ49Bvyi-29" value="" style="endArrow=classic;html=1;rounded=0;exitX=0.647;exitY=1.024;exitDx=0;exitDy=0;exitPerimeter=0;strokeWidth=3;" edge="1" parent="1">
          <mxGeometry width="50" height="50" relative="1" as="geometry">
            <mxPoint x="908.7500000000002" y="93.44" as="sourcePoint" />
            <mxPoint x="910" y="272" as="targetPoint" />
          </mxGeometry>
        </mxCell>
        <mxCell id="5wcGb58u3SQSDJ49Bvyi-32" value="" style="endArrow=classic;startArrow=classic;html=1;rounded=0;exitX=0.5;exitY=1;exitDx=0;exitDy=0;strokeWidth=3;" edge="1" parent="1" source="5wcGb58u3SQSDJ49Bvyi-1">
          <mxGeometry width="50" height="50" relative="1" as="geometry">
            <mxPoint x="410" y="490" as="sourcePoint" />
            <mxPoint x="240" y="640" as="targetPoint" />
            <Array as="points">
              <mxPoint x="140" y="440" />
              <mxPoint x="240" y="440" />
            </Array>
          </mxGeometry>
        </mxCell>
        <mxCell id="5wcGb58u3SQSDJ49Bvyi-33" value="" style="endArrow=classic;startArrow=classic;html=1;rounded=0;entryX=0.5;entryY=1;entryDx=0;entryDy=0;strokeWidth=3;" edge="1" parent="1" target="5wcGb58u3SQSDJ49Bvyi-28">
          <mxGeometry width="50" height="50" relative="1" as="geometry">
            <mxPoint x="1080" y="640" as="sourcePoint" />
            <mxPoint x="1000" y="440" as="targetPoint" />
          </mxGeometry>
        </mxCell>
        <mxCell id="5wcGb58u3SQSDJ49Bvyi-34" value="" style="endArrow=classic;startArrow=classic;html=1;rounded=0;entryX=0.5;entryY=1;entryDx=0;entryDy=0;strokeWidth=3;" edge="1" parent="1">
          <mxGeometry width="50" height="50" relative="1" as="geometry">
            <mxPoint x="908" y="640" as="sourcePoint" />
            <mxPoint x="907.97" y="426.25" as="targetPoint" />
          </mxGeometry>
        </mxCell>
        <mxCell id="5wcGb58u3SQSDJ49Bvyi-35" value="" style="endArrow=classic;startArrow=classic;html=1;rounded=0;entryX=0.5;entryY=1;entryDx=0;entryDy=0;strokeWidth=3;" edge="1" parent="1" target="5wcGb58u3SQSDJ49Bvyi-16">
          <mxGeometry width="50" height="50" relative="1" as="geometry">
            <mxPoint x="734" y="640" as="sourcePoint" />
            <mxPoint x="730" y="420" as="targetPoint" />
          </mxGeometry>
        </mxCell>
        <mxCell id="5wcGb58u3SQSDJ49Bvyi-36" value="" style="swimlane;startSize=0;" vertex="1" parent="1">
          <mxGeometry x="70" y="-90" width="1080" height="860" as="geometry" />
        </mxCell>
        <mxCell id="5wcGb58u3SQSDJ49Bvyi-37" value="&lt;font style=&quot;font-size: 36px;&quot;&gt;&lt;b&gt;Digital Video Motion Detector&lt;/b&gt;&lt;/font&gt;" style="text;html=1;align=center;verticalAlign=middle;whiteSpace=wrap;rounded=0;" vertex="1" parent="5wcGb58u3SQSDJ49Bvyi-36">
          <mxGeometry x="274" y="40" width="530" height="30" as="geometry" />
        </mxCell>
        <mxCell id="5wcGb58u3SQSDJ49Bvyi-28" value="&lt;font style=&quot;font-size: 18px;&quot;&gt;AXI STREAM&lt;/font&gt;&lt;div&gt;&lt;font size=&quot;3&quot;&gt;Interface&lt;/font&gt;&lt;/div&gt;&lt;div&gt;&lt;font size=&quot;3&quot;&gt;(Master)&lt;/font&gt;&lt;/div&gt;" style="rounded=0;whiteSpace=wrap;html=1;" vertex="1" parent="5wcGb58u3SQSDJ49Bvyi-36">
          <mxGeometry x="970" y="369.38" width="80" height="143.75" as="geometry" />
        </mxCell>
        <mxCell id="5wcGb58u3SQSDJ49Bvyi-2" value="&lt;font style=&quot;font-size: 18px;&quot;&gt;AXI LITE&lt;/font&gt;&lt;div&gt;&lt;font size=&quot;3&quot;&gt;Interface&lt;/font&gt;&lt;/div&gt;&lt;div&gt;&lt;font size=&quot;3&quot;&gt;(Slave)&lt;/font&gt;&lt;/div&gt;" style="whiteSpace=wrap;html=1;" vertex="1" parent="5wcGb58u3SQSDJ49Bvyi-36">
          <mxGeometry x="30" y="698.5" width="75" height="131" as="geometry" />
        </mxCell>
        <mxCell id="5wcGb58u3SQSDJ49Bvyi-3" value="&lt;font style=&quot;font-size: 24px;&quot;&gt;Control&lt;/font&gt;" style="rounded=0;whiteSpace=wrap;html=1;" vertex="1" parent="5wcGb58u3SQSDJ49Bvyi-36">
          <mxGeometry x="140" y="734" width="920" height="60" as="geometry" />
        </mxCell>
        <mxCell id="5wcGb58u3SQSDJ49Bvyi-31" value="" style="endArrow=classic;startArrow=classic;html=1;rounded=0;exitX=1;exitY=0.5;exitDx=0;exitDy=0;entryX=0;entryY=0.5;entryDx=0;entryDy=0;strokeWidth=3;" edge="1" parent="5wcGb58u3SQSDJ49Bvyi-36" source="5wcGb58u3SQSDJ49Bvyi-2" target="5wcGb58u3SQSDJ49Bvyi-3">
          <mxGeometry width="50" height="50" relative="1" as="geometry">
            <mxPoint x="340" y="580" as="sourcePoint" />
            <mxPoint x="390" y="530" as="targetPoint" />
          </mxGeometry>
        </mxCell>
        <mxCell id="5wcGb58u3SQSDJ49Bvyi-43" value="" style="shape=flexArrow;endArrow=classic;startArrow=classic;html=1;rounded=0;entryX=0;entryY=0.5;entryDx=0;entryDy=0;" edge="1" parent="1" target="5wcGb58u3SQSDJ49Bvyi-1">
          <mxGeometry width="100" height="100" relative="1" as="geometry">
            <mxPoint x="10" y="290" as="sourcePoint" />
            <mxPoint x="450" y="440" as="targetPoint" />
          </mxGeometry>
        </mxCell>
        <mxCell id="5wcGb58u3SQSDJ49Bvyi-44" value="" style="shape=flexArrow;endArrow=classic;startArrow=classic;html=1;rounded=0;" edge="1" parent="1">
          <mxGeometry width="100" height="100" relative="1" as="geometry">
            <mxPoint x="9" y="673.4399999999999" as="sourcePoint" />
            <mxPoint x="99" y="674.56" as="targetPoint" />
            <Array as="points">
              <mxPoint x="59" y="674.56" />
            </Array>
          </mxGeometry>
        </mxCell>
        <mxCell id="5wcGb58u3SQSDJ49Bvyi-45" value="" style="shape=flexArrow;endArrow=classic;startArrow=classic;html=1;rounded=0;entryX=0;entryY=0.5;entryDx=0;entryDy=0;" edge="1" parent="1">
          <mxGeometry width="100" height="100" relative="1" as="geometry">
            <mxPoint x="1120" y="358.75" as="sourcePoint" />
            <mxPoint x="1210" y="359.75" as="targetPoint" />
          </mxGeometry>
        </mxCell>
        <mxCell id="5wcGb58u3SQSDJ49Bvyi-49" value="" style="shape=flexArrow;endArrow=classic;startArrow=classic;html=1;rounded=0;" edge="1" parent="1">
          <mxGeometry width="100" height="100" relative="1" as="geometry">
            <mxPoint x="1120" y="59.33000000000001" as="sourcePoint" />
            <mxPoint x="1210" y="60" as="targetPoint" />
          </mxGeometry>
        </mxCell>
      </root>
    </mxGraphModel>
  </diagram>
</mxfile>
